<?xml version="1.0" encoding="utf-8"?>
<!-- Generator: Adobe Illustrator 16.0.3, SVG Export Plug-In . SVG Version: 6.00 Build 0)  -->
<!DOCTYPE svg PUBLIC "-//W3C//DTD SVG 1.1//EN" "http://www.w3.org/Graphics/SVG/1.1/DTD/svg11.dtd">
<svg version="1.1" xmlns="http://www.w3.org/2000/svg" xmlns:xlink="http://www.w3.org/1999/xlink" x="0px" y="0px"
	 width="611.998px" height="612px" viewBox="0 0 611.998 612" enable-background="new 0 0 611.998 612" xml:space="preserve">
<g id="Capa_1">
	<g>
		<g id="XMLID_1_">
			<g>
				<path fill="#0669B2" d="M564.929,136.92c12.351,0.01,22.36,10.02,22.351,22.36l-0.011,51.24c-0.22,0-0.43-0.02-0.659-0.02
					c-40.63-0.01-73.58,32.92-73.591,73.55c-0.01,40.63,32.921,73.59,73.551,73.59c0.22,0,0.439-0.02,0.66-0.02l-0.011,51.25
					c-0.01,12.34-10.02,22.34-22.359,22.34l-141.971-0.03l0.021-43.81l-33.69-0.01l-0.01,43.8l-342.15-0.09
					c-12.34,0.01-22.35-10.011-22.34-22.351l0.06-249.58c0-12.35,10.02-22.36,22.36-22.34l342.15,0.08l-0.01,44.35l33.68,0.02
					l0.01-44.36L564.929,136.92z M423.699,271.91l0.01-57.56l-33.68-0.01l-0.021,57.55L423.699,271.91z M422.909,356.34l0.01-53.09
					l-33.68-0.01l-0.01,53.09L422.909,356.34z"/>
			</g>
			<g>
			</g>
		</g>
	</g>
	<g>
		<g id="XMLID_2_">
			<g>
				<path fill="#6EB21B" d="M564.57,164.44l4.71,13.21l-17.011,9.45l-12.89,2.7l0.47,10.86l-12.26,15.11l-0.47-16.99l16.01-19.35
					l-9.86,1.45l-12.77,10.36l-15.58-0.93l-11.77,11.33l8.47,6.11l-9.88,27.35l-8.46,1.45l-5.221,7.54L480.4,254l-6.11,3.26
					l-1.91-8.94l-5.21-7.11l-7.08,7.51l5.65,16.02l-7.98,14.66l-17.479,0.93l-3.74,6.14l7.979,11.78l-8.46,7.09l-8.689-9.04
					l-0.32,8.51l-2.88,0.24l-1.05-12.81l-5.39,1.36l-6.591-14.11l-18.42,12.75v8.08l-6.609,6.56l-8.44-21.22l-9.41-11.33
					l-22.66-4.24l-6.58-5.62l-3.319,1.88l4.689,11.32l7.521-3.77l9.92,7.54l-29.21,17.44l-15.13-29.7l-3.16,0.55l15.42,35.28
					l15.09-7.09l-4.689,16.53l-15.11,13.64l2.34,20.29l-8.479,6.58l-15.51,29.23l-15.59,2.84l-13.66-33.021l3.32-15.069l-8.49-26.45
					l-28.78,1.87l-16.06-15.561l2.85-25.46l15.57-18.86l8.16-1.4l22-3.79l1.91,7.99l12.27,8l4.69-6.58l18.73,4.8l4.84-2.92
					l2.14-7.05l-12.93-2.17l-4.18-7.22l-3.04-1.56l-2.67,9.15l-5.77-7.26l0.38-6.09l-7.71-6.1l-4.57-2.29l0.39,6.11l9.56,6.49
					l-4.97,5.76l-6.85-9.17l-4.96-5.76l-11.46,5.76l-8.02,12.6l-12.21-1.9l-0.77-15.27l15.63,1.09l-4.93-7.97l-3.07-6.54l11.84-3.83
					l6.49-8.75l5.35-0.41l-1.16-4.94l3.43-4.6l2.69,7.62l14.88,0.38l4.18-10.72l5.77,1.94l-1.94-7.24l8.88-2.83l-2.76-3.27
					l-8.03,2.25l-2.82-6.85l-0.35-0.05l0.24-0.48l-1.16-2.87l3.22-2.3l2.81-7.17l-2.98-0.45l-4.97,6.11l-4.18,9.13l4.63,4.94
					l-4.63,12.23l-6.88,2.68l-3.79-12.2l-8.04,4.59l-3.8-2.28l0.36-11.84l6.89-5.3l5.74-14.13l14.52-7.99l36.24,6.65
					c41.79-4.39,117.631-12.44,117.631-12.44L564.57,164.44z M345.679,250.55l-1.859-11.82l-3.851-5.73l4.63-1.92v-5.7l-11.85,6.48
					l4.16,10.7l-1.87,7.24L345.679,250.55z M321.36,243.31l3.37-5.71l-19.84-10.31l-6.1,10.69l2.67,4.93l11.49-1.89L321.36,243.31z"
					/>
				<polygon fill="#6EB21B" points="567.619,392.58 561.019,401.519 552.589,414.28 543.159,413.34 557.769,399.639 556.36,386.469 
					563.379,392.12 				"/>
				<polygon fill="#6EB21B" points="522.36,366.21 517.669,391.599 509.159,396.83 497.389,393.5 494.579,384.969 490.329,387.309 
					481.369,382.08 458.28,387.79 452.57,384.51 454.009,380.269 450.23,359.11 465.799,353.46 480.469,339.79 491.799,340.73 
					489.9,347.309 500.23,351.09 501.78,338.889 509.579,353.46 				"/>
				<polygon fill="#6EB21B" points="511.509,330.8 515.749,339.76 505.379,333.2 502.309,336.01 495.009,335.53 482.269,322.32 
					492.159,321.4 				"/>
				<polygon fill="#6EB21B" points="503.959,230.92 509.129,235.13 502.559,241.23 501.619,253.5 481.82,265.28 482.289,258.21 
					493.139,250.21 501.619,232.27 502.079,215.3 505.4,215.3 506.769,220.98 				"/>
				<polygon fill="#6EB21B" points="462.49,311.99 456.829,329.41 444.579,327.07 442.669,319.51 459.169,309.13 				"/>
				<polygon fill="#6EB21B" points="460.169,336.94 436.579,332.719 426.659,323.29 417.73,310.519 429.929,316.67 424.28,306.34 
					424.169,305.05 427.049,304.81 434.629,313.33 437.949,328.4 447.4,331.76 				"/>
				<polygon fill="#6EB21B" points="337.65,341.769 339.209,349.44 333.119,367.769 326.98,365.099 327.349,349.8 				"/>
				<polygon fill="#6EB21B" points="243.009,173.52 253.339,193.4 250.639,197.59 241.089,201.77 241.089,188.03 238.049,197.22 
					231.159,197.22 231.549,189.99 237.289,183.07 236.909,177.76 				"/>
				<polygon fill="#6EB21B" points="183.849,173.46 187.749,181.36 182.169,191.84 181.859,197.26 176.449,200.59 175.819,214.88 
					167.829,212.91 150.939,168.92 164.079,154.88 174.709,157.8 				"/>
				<polygon fill="#6EB21B" points="186.129,357.53 171.74,387.01 157.339,389.2 155.149,400.74 125.659,425.94 122.879,431.21 
					102.889,431.21 116.289,377.01 102.609,364.79 96.179,338.91 103.919,326.24 96.859,327.309 86.819,314.389 78.169,310.07 
					58.029,302.87 41.449,276.97 31.399,258.27 31.399,233.06 24.719,206.83 24.719,164.5 29.99,151.05 58.029,167.59 
					111.99,161.79 111.99,189.15 90.409,193.46 86.079,205.01 106.959,227.29 111.99,226.57 115.559,198.52 129.289,197.82 
					134.999,213.61 142.199,209.31 158.029,244.6 135.729,254.63 118.469,264.01 104.799,282.72 104.799,292.09 99.749,292.79 
					96.179,282.72 76.749,285.59 72.429,297.8 77.449,305.01 84.629,299.22 91.839,299.93 88.24,310.19 96.859,310.809 
					99.749,321.58 105.559,323.519 109.849,316.519 138.639,319.389 158.029,333.8 160.949,345.3 				"/>
			</g>
			<g>
			</g>
		</g>
	</g>
</g>
<g id="Layer_2">
	<rect x="389.289" y="136.8" fill="#FFFFFF" width="33.71" height="44.36"/>
	<rect x="389.219" y="387.467" fill="#FFFFFF" width="33.71" height="44.359"/>
	<rect x="389.219" y="303.24" fill="#FFFFFF" width="33.71" height="53.095"/>
	<rect x="389.219" y="214.34" fill="#FFFFFF" width="33.71" height="53.095"/>
</g>
</svg>
